<svg overflow="hidden" xmlns="http://www.w3.org/2000/svg" viewBox="0 0 100 100" height="100%" width="100%">
  <g>
    <path transform="rotate(0, 50, 50)" fill="#262b44" d="M 50 50 L 250 50 L 243.18516525781365 101.76380902050414"></path>
    <path transform="rotate(15, 50, 50)" fill="rgba(0,0,0,0)" d="M 50 50 L 250 50 L 243.18516525781365 101.76380902050414"></path>
    <path transform="rotate(30, 50, 50)" fill="#262b44" d="M 50 50 L 250 50 L 243.18516525781365 101.76380902050414"></path>
    <path transform="rotate(45, 50, 50)" fill="rgba(0,0,0,0)" d="M 50 50 L 250 50 L 243.18516525781365 101.76380902050414"></path>
    <path transform="rotate(60, 50, 50)" fill="#262b44" d="M 50 50 L 250 50 L 243.18516525781365 101.76380902050414"></path>
    <path transform="rotate(75, 50, 50)" fill="rgba(0,0,0,0)" d="M 50 50 L 250 50 L 243.18516525781365 101.76380902050414"></path>
    <path transform="rotate(90, 50, 50)" fill="#262b44" d="M 50 50 L 250 50 L 243.18516525781365 101.76380902050414"></path>
    <path transform="rotate(105, 50, 50)" fill="rgba(0,0,0,0)" d="M 50 50 L 250 50 L 243.18516525781365 101.76380902050414"></path>
    <path transform="rotate(120, 50, 50)" fill="#262b44" d="M 50 50 L 250 50 L 243.18516525781365 101.76380902050414"></path>
    <path transform="rotate(135, 50, 50)" fill="rgba(0,0,0,0)" d="M 50 50 L 250 50 L 243.18516525781365 101.76380902050414"></path>
    <path transform="rotate(150, 50, 50)" fill="#262b44" d="M 50 50 L 250 50 L 243.18516525781365 101.76380902050414"></path>
    <path transform="rotate(165, 50, 50)" fill="rgba(0,0,0,0)" d="M 50 50 L 250 50 L 243.18516525781365 101.76380902050414"></path>
    <path transform="rotate(180, 50, 50)" fill="#262b44" d="M 50 50 L 250 50 L 243.18516525781365 101.76380902050414"></path>
    <path transform="rotate(195, 50, 50)" fill="rgba(0,0,0,0)" d="M 50 50 L 250 50 L 243.18516525781365 101.76380902050414"></path>
    <path transform="rotate(210, 50, 50)" fill="#262b44" d="M 50 50 L 250 50 L 243.18516525781365 101.76380902050414"></path>
    <path transform="rotate(225, 50, 50)" fill="rgba(0,0,0,0)" d="M 50 50 L 250 50 L 243.18516525781365 101.76380902050414"></path>
    <path transform="rotate(240, 50, 50)" fill="#262b44" d="M 50 50 L 250 50 L 243.18516525781365 101.76380902050414"></path>
    <path transform="rotate(255, 50, 50)" fill="rgba(0,0,0,0)" d="M 50 50 L 250 50 L 243.18516525781365 101.76380902050414"></path>
    <path transform="rotate(270, 50, 50)" fill="#262b44" d="M 50 50 L 250 50 L 243.18516525781365 101.76380902050414"></path>
    <path transform="rotate(285, 50, 50)" fill="rgba(0,0,0,0)" d="M 50 50 L 250 50 L 243.18516525781365 101.76380902050414"></path>
    <path transform="rotate(300, 50, 50)" fill="#262b44" d="M 50 50 L 250 50 L 243.18516525781365 101.76380902050414"></path>
    <path transform="rotate(315, 50, 50)" fill="rgba(0,0,0,0)" d="M 50 50 L 250 50 L 243.18516525781365 101.76380902050414"></path>
    <path transform="rotate(330, 50, 50)" fill="#262b44" d="M 50 50 L 250 50 L 243.18516525781365 101.76380902050414"></path>
    <path transform="rotate(345, 50, 50)" fill="rgba(0,0,0,0)" d="M 50 50 L 250 50 L 243.18516525781365 101.76380902050414"></path>
  </g>
</svg>
